<svg fill="#e2c969" id="Capa_1" enable-background="new 0 0 512 512" height="512" viewBox="0 0 512 512" width="512" xmlns="http://www.w3.org/2000/svg"><g><g><path d="m303.17 244.62c-1.588-3.874-5.592-6.387-9.771-6.16-4.16.225-7.818 3.099-9.029 7.081-1.203 3.953.218 8.311 3.48 10.834 3.342 2.584 8.131 2.736 11.639.386 3.912-2.62 5.492-7.794 3.681-12.141z"/><path d="m259.487 64.517c0-5.523-4.477-10-10-10h-163.678c-5.523 0-10 4.477-10 10v94.38c0 5.523 4.477 10 10 10h163.678c5.523 0 10-4.477 10-10zm-20 84.38h-143.678v-74.38h143.678z"/><path d="m156.97 422.146c.872.237 1.754.352 2.626.352 3.48 0 6.793-1.824 8.621-4.935l60.727-103.338c1.817-3.092 1.839-6.92.058-10.033s-5.093-5.033-8.679-5.033h-34.621v-62.403c0-4.512-3.021-8.465-7.374-9.65-4.354-1.184-8.961.693-11.247 4.583l-60.727 103.338c-1.817 3.092-1.839 6.921-.058 10.033 1.782 3.113 5.093 5.033 8.68 5.033h34.622v62.403c-.003 4.512 3.018 8.465 7.372 9.65zm-24.521-92.052 33.251-56.583v35.648c0 5.523 4.477 10 10 10h27.146l-33.251 56.583v-35.648c0-5.523-4.477-10-10-10z"/><path d="m491.04 277.921h-.851v-42.505c0-10.075-6.208-18.727-15-22.331v-30.355c0-5.523-4.477-10-10-10h-13.426v-73.021c0-29.611-24.091-53.702-53.702-53.702s-53.702 24.091-53.702 53.702v267.645c0 16.724-13.606 30.33-30.33 30.33h-10.095v-103.852c0-5.523-4.477-10-10-10s-10 4.477-10 10v153.078h-232.573v-414.018c0-7.109 5.783-12.892 12.891-12.892h206.791c7.108 0 12.892 5.783 12.892 12.892v170.528c0 5.523 4.477 10 10 10s10-4.477 10-10v-170.528c0-18.137-14.755-32.892-32.892-32.892h-206.791c-18.136 0-32.891 14.755-32.891 32.892v414.018h-10.401c-5.523 0-10 4.477-10 10v45.09c0 5.523 4.477 10 10 10h293.376c5.523 0 10-4.477 10-10v-45.09c0-5.523-4.477-10-10-10h-10.401v-29.226h10.095c27.752 0 50.33-22.578 50.33-50.33v-267.645c0-18.583 15.119-33.702 33.702-33.702s33.702 15.119 33.702 33.702v73.021h-13.426c-5.523 0-10 4.477-10 10v30.355c-8.792 3.605-15 12.257-15 22.331v42.505h-.851c-5.523 0-10 4.477-10 10s4.477 10 10 10h17.52v14.555c0 5.523 4.477 10 10 10s10-4.477 10-10v-14.555h23.514v14.555c0 5.523 4.477 10 10 10s10-4.477 10-10v-14.555h17.52c5.523 0 10-4.477 10-10-.001-5.523-4.477-10-10.001-10zm-186.704 214.079h-273.376v-25.09h273.376zm124.002-299.27h26.852v18.564h-26.852zm-15 42.686c0-2.273 1.85-4.122 4.122-4.122h48.607c2.273 0 4.123 1.849 4.123 4.122v42.505h-56.852z"/><path d="m145.449 202.958c0-5.523-4.477-10-10-10h-49.64c-5.523 0-10 4.477-10 10s4.477 10 10 10h49.641c5.522 0 9.999-4.478 9.999-10z"/><path d="m259.487 202.958c0-5.523-4.477-10-10-10h-49.64c-5.523 0-10 4.477-10 10s4.477 10 10 10h49.64c5.523 0 10-4.478 10-10z"/></g></g></svg>