<?xml version="1.0"?>
<svg fill="#ffffff" xmlns="http://www.w3.org/2000/svg" id="Layer_1" data-name="Layer 1" viewBox="0 0 512 512" width="512" height="512"><title>a2</title><path d="M140.066,95h50.159a6.273,6.273,0,0,0,4.242-10.608l-20.249-20.31A131.034,131.034,0,0,1,363.689,91.143a6,6,0,0,0,9.83-6.9,143.057,143.057,0,0,0-207.83-28.754l-21.38-21.381A6.046,6.046,0,0,0,134,38.354V88.513C134,91.826,136.752,95,140.066,95ZM146,52.839,160.8,67.6c.01.012.035.024.045.036.163.184.346.595.526.754L175.739,83H146Z"/><path d="M368.521,417H318.363a6.273,6.273,0,0,0-4.243,10.608l20.249,20.309A131.032,131.032,0,0,1,144.9,420.857a6,6,0,0,0-9.83,6.894A143.055,143.055,0,0,0,342.9,456.506l21.382,21.382a5.994,5.994,0,0,0,4.244,1.758,7.227,7.227,0,0,0,2.534-.457A6.227,6.227,0,0,0,375,473.646V423.487A6.858,6.858,0,0,0,368.521,417ZM363,459.161l-15.007-14.768c-.009-.01-.136-.022-.146-.033-.163-.183-.4-.594-.576-.753L332.848,429H363Z"/><path d="M397.817,151.487a101,101,0,1,0,101,101A101.115,101.115,0,0,0,397.817,151.487Zm0,190a89,89,0,1,1,89-89A89.1,89.1,0,0,1,397.817,341.487Z"/><path d="M398.035,209.352a18.312,18.312,0,0,1,18.291,18.292,5.992,5.992,0,1,0,11.983,0A30.2,30.2,0,0,0,404,197.951v-7.946a6,6,0,0,0-12,0v7.946a30.294,30.294,0,0,0,6.026,59.984,18.287,18.287,0,0,1,.18,36.574c-.058,0-.114-.009-.172-.009s-.115.007-.174.009a18.307,18.307,0,0,1-18.117-18.282,6.009,6.009,0,0,0-12.017,0A30.166,30.166,0,0,0,392,305.918v9.052a6,6,0,0,0,12,0v-9.052a30.29,30.29,0,0,0-5.974-59.983,18.292,18.292,0,0,1,.009-36.583Z"/><path d="M185,266.155V191.306a5.919,5.919,0,0,0-3.263-5.386l-79.955-39.292a5.953,5.953,0,0,0-5.261,0l-80.08,39.181A6.074,6.074,0,0,0,13,191.194v74.961c0,19.863,12.956,44.193,29.377,55.39l53.379,36.374a6.058,6.058,0,0,0,6.8,0L155.8,321.545C172.222,310.348,185,286.018,185,266.155Zm-35.956,45.476L99.137,345.7,49.115,311.631C36.08,302.743,25,281.918,25,266.155V194.937L99,158.7l74,36.347v71.112C173,281.918,162.08,302.743,149.044,311.631Z"/><path d="M128.842,226.942,89.5,265.354l-19.974-19.5a6,6,0,0,0-8.383,8.586l24.165,23.593a6,6,0,0,0,8.383,0l43.536-42.505a6,6,0,1,0-8.383-8.586Z"/></svg>
