<?xml version="1.0" encoding="utf-8"?>
<!-- Generator: Adobe Illustrator 21.1.0, SVG Export Plug-In . SVG Version: 6.00 Build 0)  -->
<svg version="1.1" id="Capa_1" xmlns="http://www.w3.org/2000/svg" xmlns:xlink="http://www.w3.org/1999/xlink" x="0px" y="0px"
	 viewBox="0 0 512 512" style="enable-background:new 0 0 512 512;" xml:space="preserve">
<style type="text/css">
	.st0{fill:#FFFFFF;}
</style>
<path class="st0" d="M56.5,423.6c0-2.8,0-5,0-7.2c0-121.1,0-242.2,0-363.3c0-28.2,17.1-45.4,45.2-45.4c119.5,0,239.1,0,358.6,0
	c28.1,0,45.3,17.2,45.3,45.3c0,19.9,0,39.8,0,59.8c0,8.7-2.6,11.3-11.5,11.3c-16.5,0-32.9,0-49.4,0c-1.7,0-3.4,0-5.6,0
	c0,2.3,0,4.2,0,6c0,54.4,0,108.8-0.1,163.2c0,4,1.1,5.9,4.9,7.7c43,20.1,67.5,66.3,60.6,113.8c-6.7,46.2-44.2,83.8-90.5,90.6
	c-6,0.9-12.1,1.2-18.1,1.2c-115,0.1-230.1,0.1-345.1,0c-26.4,0-44-17.6-44.1-43.9c0-9.7,0-19.4,0-29.1c0-7.1,3-10.1,10.1-10.1
	C29.7,423.6,42.7,423.6,56.5,423.6z M422.4,293.2c0-2.2,0-4.2,0-6.3c0-75,0-150,0-225.1c0-12.8-0.5-25.7,8.4-37.4
	c-2.7,0-4.4,0-6.1,0c-107.8,0-215.5,0-323.3,0c-18.4,0-28.2,9.9-28.2,28.2c0,121.6,0,243.3,0,364.9c0,1.9,0,3.7,0,5.7
	c73.3,0,146.1,0,218.9,0C274.6,342.6,345.6,275.5,422.4,293.2z M23.2,440.3c0,8.2,0,15.6,0,23.1c0.1,16.5,10.4,26.8,27.1,26.8
	c94.6,0,189.2,0,283.8,0c1.4,0,2.9-0.2,5.3-0.4c-17.8-11.9-31-26.5-39.5-45.1c-1.7-3.6-3.6-4.5-7.4-4.5
	c-87.8,0.1-175.7,0.1-263.5,0.1C27.2,440.3,25.5,440.3,23.2,440.3z M488.9,398.5c0.1-49.9-41-91.1-90.8-91.2
	c-50.7-0.1-92.1,40.7-92.2,90.9c-0.1,51,40.7,92,91.6,92C447.9,490.2,488.9,449.1,488.9,398.5z M488.9,107.4c0-19.3,0-38,0-56.6
	c0-15.1-10.8-26.3-24.9-26.3c-14.1,0-24.9,11.3-24.9,26.3c-0.1,17.5,0,35,0,52.5c0,1.3,0.2,2.7,0.3,4.1
	C455.9,107.4,472.1,107.4,488.9,107.4z"/>
<path class="st0" d="M248.3,157.5c42.8,0,85.6,0,128.4,0c1.7,0,3.5-0.2,5.2,0.1c4.5,0.8,7.2,3.6,7.2,8.2c0,4.6-2.7,7.3-7.2,8.2
	c-1.5,0.3-3.1,0.1-4.7,0.1c-86.3,0-172.6,0-258.8,0c-1.6,0-3.2,0.2-4.7-0.1c-4.5-0.8-7.2-3.6-7.2-8.2c0-4.6,2.7-7.4,7.2-8.2
	c1.7-0.3,3.5-0.1,5.2-0.1C162,157.5,205.1,157.5,248.3,157.5z"/>
<path class="st0" d="M247.7,224c-43,0-85.9,0-128.9,0c-1.7,0-3.5,0.2-5.2-0.1c-4.5-0.8-7.2-3.6-7.2-8.2c0-4.6,2.7-7.4,7.2-8.2
	c1.5-0.3,3.1-0.1,4.7-0.1c86.3,0,172.6,0,258.8,0c1.6,0,3.2-0.2,4.7,0.1c4.5,0.8,7.2,3.6,7.2,8.2c0,4.6-2.7,7.4-7.2,8.2
	c-1.7,0.3-3.5,0.1-5.2,0.1C333.7,224,290.7,224,247.7,224z"/>
<path class="st0" d="M247.2,273.9c-42.8,0-85.6,0-128.4,0c-1.7,0-3.5,0.2-5.2-0.1c-4.5-0.8-7.2-3.6-7.2-8.2c0-4.6,2.7-7.4,7.2-8.2
	c1.5-0.3,3.1-0.1,4.7-0.1c86.3,0,172.6,0,258.8,0c1.6,0,3.2-0.2,4.7,0.1c4.5,0.8,7.2,3.6,7.2,8.2c0,4.6-2.7,7.4-7.2,8.2
	c-1.7,0.3-3.5,0.1-5.2,0.1C333.5,273.9,290.4,273.9,247.2,273.9z"/>
<path class="st0" d="M281,74.3c-31.9,0-63.8,0-95.6,0c-1.7,0-3.5,0.2-5.2-0.1c-4.5-0.8-7.2-3.6-7.2-8.2c0-4.6,2.7-7.4,7.2-8.2
	c1.5-0.3,3.1-0.1,4.7-0.1c64.1,0,128.2,0,192.3,0c1.6,0,3.2-0.2,4.7,0.1c4.5,0.8,7.2,3.6,7.2,8.2c0,4.6-2.7,7.4-7.2,8.2
	c-1.7,0.3-3.5,0.1-5.2,0.1C344.8,74.3,312.9,74.3,281,74.3z"/>
<path class="st0" d="M281,124.2c-31.9,0-63.8,0-95.6,0c-1.7,0-3.5,0.2-5.2-0.1c-4.5-0.8-7.2-3.6-7.2-8.2c0-4.6,2.7-7.4,7.2-8.2
	c1.5-0.3,3.1-0.1,4.7-0.1c64.1,0,128.2,0,192.3,0c1.6,0,3.2-0.2,4.7,0.1c4.5,0.8,7.2,3.6,7.2,8.2c0,4.6-2.7,7.4-7.2,8.2
	c-1.7,0.3-3.5,0.1-5.2,0.1C344.8,124.2,312.9,124.2,281,124.2z"/>
<path class="st0" d="M206.2,307.2c29.3,0,58.6,0,87.8,0c1.6,0,3.2-0.2,4.7,0.1c4.5,0.8,7.2,3.6,7.2,8.2c0,4.6-2.7,7.3-7.2,8.2
	c-1.5,0.3-3.1,0.1-4.7,0.1c-58.6,0-117.1,0-175.7,0c-1.6,0-3.2,0.2-4.7-0.1c-4.5-0.8-7.2-3.6-7.2-8.2c0-4.6,2.7-7.4,7.2-8.2
	c1.5-0.3,3.1-0.1,4.7-0.1C147.6,307.2,176.9,307.2,206.2,307.2z"/>
<path class="st0" d="M193.5,373.7c-24.9,0-49.9,0-74.8,0c-1.6,0-3.1,0.1-4.7-0.1c-4.5-0.5-7.8-4.1-7.6-8.4c0.3-4.6,2.9-7.3,7.4-8
	c1.2-0.2,2.4-0.1,3.6-0.1c50.8,0,101.5,0,152.3,0c1.2,0,2.4-0.1,3.6,0.1c4.5,0.6,7.8,4.1,7.6,8.4c-0.3,4.6-2.9,7.3-7.4,8
	c-1.5,0.3-3.1,0.1-4.7,0.1C243.7,373.7,218.6,373.7,193.5,373.7z"/>
<path class="st0" d="M89.7,81.1c0-5.2-0.1-10.4,0-15.6c0.4-13.6,11-24.2,24.6-24.4c10.7-0.2,21.5-0.1,32.2,0c6,0,9.8,3.4,9.7,8.4
	c-0.1,5-3.8,8.1-10,8.2c-9.9,0.1-19.7,0-29.6,0c-7.4,0-10.3,2.9-10.3,10.4c0,9.9,0,19.7,0,29.6c0,6.1-3.3,9.8-8.3,9.8
	c-5,0-8.2-3.7-8.3-9.8C89.7,92.2,89.7,86.7,89.7,81.1z"/>
<path class="st0" d="M464,369.6c-0.3,45.5-20,79.5-60,101.6c-4.6,2.5-8.4,2.5-13.1,0c-29.9-16.3-50.1-40.3-57.1-73.8
	c-2.7-13.1-2.2-26.8-2.8-40.2c-0.2-4.8,3.2-7.5,7.9-8c2.9-0.3,5.9-0.2,8.8-0.2c8.8,0,16.7-2.7,23.8-7.8c6.6-4.8,13.1-9.6,19.5-14.6
	c4.4-3.4,8.4-3.4,12.7,0c5.6,4.4,11.4,8.5,17,12.8c8.5,6.6,18.1,9.8,28.9,9.7c12.7-0.2,14.3,1.6,14.3,14.4
	C464,365.4,464,367.5,464,369.6z M348.5,365.4c-0.6,0.7-0.8,0.9-0.8,1c-3.5,34.4,16.2,71.2,46.9,87.4c1.6,0.8,4.4,0.7,6-0.2
	c16.3-9.2,28.7-22.2,37-38.9c7.6-15.3,10.9-31.6,9.2-49.3c-20.3,0.4-34.7-11.4-49.5-23.1C382.7,354.2,368.3,365.9,348.5,365.4z"/>
<path class="st0" d="M388.7,404.3c8.6-8.7,15.9-16.2,23.4-23.7c4.6-4.6,9.5-5.1,13.2-1.4c3.6,3.6,3.2,8.6-1.4,13.2
	c-9.1,9.2-18.3,18.4-27.5,27.5c-5.1,5.1-9.2,5.1-14.3,0c-4.3-4.2-8.6-8.5-12.8-12.9c-4.4-4.5-4.8-9.1-1.2-12.8
	c3.7-3.8,8.5-3.5,13.1,1.2C383.6,398.1,385.8,401,388.7,404.3z"/>
</svg>
