<svg fill="#e2c969" id="icons" enable-background="new 0 0 64 64" height="512" viewBox="0 0 64 64" width="512" xmlns="http://www.w3.org/2000/svg"><path d="m12.674 48.99h-4.932c-.553 0-1 .447-1 1v4c0 .553.447 1 1 1h1.402l.839 1.399c-.799.83-1.263 1.939-1.263 3.116 0 2.481 2.019 4.5 4.5 4.5s4.5-2.019 4.5-4.5c0-1.177-.463-2.286-1.264-3.117l.84-1.398h1.453v5.018c0 .553.447 1 1 1h4.002 25.134c.447 1.721 2 3 3.858 3 1.872 0 3.436-1.297 3.869-3.036 1.209-.175 2.143-1.207 2.143-2.464 0-1.379-1.121-2.5-2.5-2.5h-31.503v-16.99h6.993c.055 0 .103-.022.155-.031h22.354c1.379 0 2.5-1.121 2.5-2.5 0-1.211-.865-2.222-2.01-2.45v-22.032c0-.552-.447-1-1-1h-21.984c-.553 0-1 .448-1 1v10.224c-.318-.115-.657-.189-1.016-.189h-4.992v-21.048c0-.552-.447-1-1-1h-4.002c-.553 0-1 .448-1 1v47.998h-.942l-7.626-33.032c-.31-1.341-1.656-2.184-3-1.873-1.341.31-2.182 1.654-1.873 2.998zm29.071-35.985h2v3.002h-2zm-8.985 0h6.985v4.002c0 .552.447 1 1 1h4c.553 0 1-.448 1-1v-4.002h6.999v20.981h-19.984zm-.015 22.981h20.999.51c.275 0 .5.225.5.5s-.225.5-.5.5h-21.509zm-7.993.028c.549-.004.992-.448.992-.998s-.443-.994-.992-.998v-1.004c.549-.004.992-.449.992-.999s-.443-.994-.992-.999v-1.003c.549-.005.992-.449.992-.999s-.443-.994-.992-.999v-1.003c.549-.005.992-.449.992-.999s-.443-.994-.992-.999v-.976h4.992c.552 0 1.001.449 1.001 1.001v11.976h-5.993zm27.992 25.994c-.736 0-1.375-.405-1.722-1h3.443c-.346.595-.985 1-1.721 1zm-27.992-4h31.504c.275 0 .5.225.5.5s-.225.5-.5.5h-31.504zm-4.002-56.016h2.002v57.016h-2.002zm-7.529 60.014c-1.379 0-2.5-1.121-2.5-2.5 0-.46.137-.896.365-1.278l.776 1.293c.037.063.084.114.132.165.01.011.016.022.025.032.082.081.178.141.279.188.025.012.05.021.076.03.11.04.225.068.343.069h.002 1 .002c.118-.001.232-.029.343-.069.026-.01.051-.019.076-.03.102-.048.197-.107.279-.188.01-.01.016-.021.025-.031.048-.052.095-.104.132-.166l.777-1.294c.229.383.366.819.366 1.279.002 1.379-1.119 2.5-2.498 2.5zm-1.744-7.016h3.488l-1.745 2.905zm5.539-3.978c.063 0 .127-.009.191-.021h1.543v2h-10.008v-2h8.147c.043.005.083.021.127.021zm-9.385-34.978c.276-.062.539.103.602.375l7.521 32.582h-1.027l-7.469-32.357c-.062-.269.106-.539.373-.6z"/></svg>