<svg fill="#ffffff" id="Capa_1" enable-background="new 0 0 512 512" height="512" viewBox="0 0 512 512" width="512" xmlns="http://www.w3.org/2000/svg"><g><path d="m195.051 62.936h-27.738c-4.142 0-7.5 3.358-7.5 7.5s3.358 7.5 7.5 7.5h27.738c4.142 0 7.5-3.358 7.5-7.5s-3.358-7.5-7.5-7.5z"/><path d="m236.949 77.936h107.738c4.143 0 7.5-3.358 7.5-7.5s-3.357-7.5-7.5-7.5h-107.738c-4.142 0-7.5 3.358-7.5 7.5s3.358 7.5 7.5 7.5z"/><path d="m195.051 105.989h-27.738c-4.142 0-7.5 3.358-7.5 7.5s3.358 7.5 7.5 7.5h27.738c4.142 0 7.5-3.358 7.5-7.5s-3.358-7.5-7.5-7.5z"/><path d="m236.949 120.989h107.738c4.143 0 7.5-3.358 7.5-7.5s-3.357-7.5-7.5-7.5h-107.738c-4.142 0-7.5 3.358-7.5 7.5s3.358 7.5 7.5 7.5z"/><path d="m195.051 149.043h-27.738c-4.142 0-7.5 3.358-7.5 7.5s3.358 7.5 7.5 7.5h27.738c4.142 0 7.5-3.358 7.5-7.5s-3.358-7.5-7.5-7.5z"/><path d="m236.949 164.043h107.738c4.143 0 7.5-3.358 7.5-7.5s-3.357-7.5-7.5-7.5h-107.738c-4.142 0-7.5 3.358-7.5 7.5s3.358 7.5 7.5 7.5z"/><path d="m354.512 414.675v-36.658c0-7.15-5.817-12.968-12.968-12.968h-171.09c-7.15 0-12.967 5.817-12.967 12.968v36.658c0 7.15 5.817 12.968 12.967 12.968h171.09c7.151 0 12.968-5.818 12.968-12.968zm-15-2.032h-167.025v-32.594h167.025z"/><path d="m195.051 192.096h-27.738c-4.142 0-7.5 3.358-7.5 7.5s3.358 7.5 7.5 7.5h27.738c4.142 0 7.5-3.358 7.5-7.5s-3.358-7.5-7.5-7.5z"/><path d="m236.949 207.096h107.738c4.143 0 7.5-3.358 7.5-7.5s-3.357-7.5-7.5-7.5h-107.738c-4.142 0-7.5 3.358-7.5 7.5s3.358 7.5 7.5 7.5z"/><path d="m195.051 235.149h-27.738c-4.142 0-7.5 3.358-7.5 7.5s3.358 7.5 7.5 7.5h27.738c4.142 0 7.5-3.358 7.5-7.5s-3.358-7.5-7.5-7.5z"/><path d="m236.949 250.149h107.738c4.143 0 7.5-3.358 7.5-7.5s-3.357-7.5-7.5-7.5h-107.738c-4.142 0-7.5 3.358-7.5 7.5s3.358 7.5 7.5 7.5z"/><path d="m199.129 451.807c-4.142 0-7.5 3.357-7.5 7.5s3.358 7.5 7.5 7.5h113.741c4.143 0 7.5-3.357 7.5-7.5s-3.357-7.5-7.5-7.5z"/><path d="m504.5 288.32h-32.005l19.255-130.376c.604-4.098-2.227-7.91-6.324-8.515-4.098-.609-7.909 2.226-8.516 6.324l-19.579 132.567h-63.161v-233.616l93.479 15.051c.665.107 1.064.489 1.282.791s.455.801.333 1.562l-7.889 53.407c-.604 4.098 2.227 7.91 6.324 8.515.371.055.74.082 1.105.082 3.656 0 6.859-2.679 7.41-6.405l7.873-53.311c.721-4.475-.345-8.962-3-12.636-2.654-3.674-6.581-6.094-11.056-6.814l-95.861-15.436v-15.319c0-9.356-7.612-16.969-16.969-16.969h-130.911c-4.142 0-7.5 3.358-7.5 7.5s3.358 7.5 7.5 7.5h130.912c1.086 0 1.969.883 1.969 1.969v264.129h-39.765c-9.468 0-18.056 5.959-21.369 14.829l-7.44 19.918c-1.135 3.037-4.076 5.078-7.318 5.078h-94.556c-3.242 0-6.183-2.041-7.318-5.078l-7.441-19.919c-3.313-8.869-11.901-14.828-21.369-14.828h-39.765v-264.129c0-1.085.883-1.969 1.969-1.969h81.504c4.142 0 7.5-3.358 7.5-7.5s-3.358-7.5-7.5-7.5h-81.504c-9.356 0-16.969 7.612-16.969 16.969v15.319l-95.862 15.435c-4.475.72-8.401 3.14-11.057 6.814-2.655 3.674-3.72 8.161-3.015 12.54l31.61 214.021h-32.006c-4.142 0-7.5 3.357-7.5 7.5v138.525c0 38.836 31.596 70.432 70.432 70.432h32.494c4.142 0 7.5-3.357 7.5-7.5s-3.358-7.5-7.5-7.5h-32.494c-30.565 0-55.432-24.866-55.432-55.431v-131.026h157.594c3.242 0 6.183 2.04 7.317 5.078l7.441 19.919c3.314 8.869 11.902 14.828 21.37 14.828h94.556c9.468 0 18.056-5.959 21.369-14.829l7.44-19.918c1.135-3.037 4.076-5.078 7.318-5.078h157.594v131.025c0 30.565-24.866 55.432-55.432 55.432h-308.654c-4.142 0-7.5 3.357-7.5 7.5s3.358 7.5 7.5 7.5h308.655c38.836 0 70.432-31.596 70.432-70.432v-138.525c0-4.142-3.358-7.5-7.5-7.5zm-481.779-216.308c-.107-.666.13-1.165.348-1.466.218-.302.617-.684 1.283-.791l93.478-15.051v233.616h-63.162z"/></g></svg>