<?xml version="1.0" encoding="iso-8859-1"?>
<!-- Generator: Adobe Illustrator 21.0.0, SVG Export Plug-In . SVG Version: 6.00 Build 0)  -->
<svg fill="#e2c969" xmlns="http://www.w3.org/2000/svg" xmlns:xlink="http://www.w3.org/1999/xlink" version="1.1" id="Capa_1" x="0px" y="0px" viewBox="0 0 512 512" style="enable-background:new 0 0 512 512;" xml:space="preserve" width="512" height="512">
<g>
	<path d="M360.95,91C311.351,91.167,271,131.653,271,181.252V327.53c0,49.877,38.999,93.131,89.063,93.466L361,421   c83.262,0,151-74.019,151-165S444.262,91,360.95,91z M361,391l-0.731-0.002C327.588,390.778,301,362.307,301,327.53V181.252   c0-33.112,26.938-60.141,60-60.252c66.72,0,121,60.561,121,135S427.72,391,361,391z"/>
	<path d="M405.438,180.858c-6.369,5.298-7.236,14.756-1.938,21.125C415.43,216.323,422,235.507,422,256   c0,20.5-6.576,39.68-18.516,54.008c-5.303,6.364-4.443,15.823,1.92,21.126c6.351,5.292,15.811,4.458,21.126-1.92   C442.955,309.505,452,283.504,452,256c0-27.488-9.034-53.486-25.438-73.204C421.265,176.428,411.807,175.56,405.438,180.858z"/>
	<path d="M151,91C67.738,91,0,165.019,0,256s67.738,165,151,165l0.933-0.003C202.095,420.66,241,377.297,241,327.53V181.252   C241,131.653,200.649,91.167,151,91z M211,327.53c0,34.777-26.588,63.248-59.273,63.467L151,391c-66.72,0-121-60.561-121-135   s54.28-135,120.95-135c33.112,0.111,60.05,27.14,60.05,60.252V327.53z"/>
	<path d="M106.596,180.866c-6.362-5.304-15.821-4.444-21.126,1.92C69.045,202.494,60,228.496,60,256s9.045,53.506,25.47,73.214   c5.311,6.374,14.77,7.217,21.126,1.92c6.364-5.304,7.224-14.762,1.92-21.126C96.576,295.681,90,276.5,90,256   s6.576-39.681,18.516-54.008C113.819,195.628,112.96,186.17,106.596,180.866z"/>
</g>















</svg>
