<?xml version="1.0" encoding="UTF-8"?>
<svg fill="#e2c969" xmlns="http://www.w3.org/2000/svg" viewBox="0 0 512 512" width="512" height="512"><g id="outline"><path d="M493.657,466.343l-16-16A8,8,0,0,0,472,448H448.328l-4.977-179.15A243.786,243.786,0,0,0,473.208,297.8a8,8,0,0,0,13.029-6.82,244.987,244.987,0,0,0-39.376-115.251,31.712,31.712,0,0,0,.267-6.6A244.973,244.973,0,0,0,495.9,57.515a8,8,0,0,0-12.42-7.874,244.975,244.975,0,0,0-80.124,91.734,31.711,31.711,0,0,0-5.86,3.06A244.988,244.988,0,0,0,276.46,158.006a8,8,0,0,0-.608,14.694,245.049,245.049,0,0,0,105.56,23.926c3.445,0,6.9-.1,10.343-.246L386.543,384H328a8,8,0,0,0-7.155,4.422l-16,32a4.992,4.992,0,0,0-.809,2.863c-.021.236-.036.474-.036.715v24h-5.578l-21.984-14.656A8.005,8.005,0,0,0,272,432h-3.056l8-16H288a8,8,0,0,0,6.4-12.8l-24-32A8,8,0,0,0,264,368H200a8,8,0,0,0-6.4,12.8l11.433,15.244L187.056,432H178l-6.278-226a245.033,245.033,0,0,0,91.329,29.939,8,8,0,0,0,7.352-12.735,244.979,244.979,0,0,0-94.983-76.271,31.968,31.968,0,0,0-3.289-5.68A244.988,244.988,0,0,0,153.574,20.849a8,8,0,0,0-14.707,0,244.992,244.992,0,0,0-18.559,120.408,31.963,31.963,0,0,0-3.288,5.68,244.982,244.982,0,0,0-94.984,76.271,8,8,0,0,0,7.353,12.735A245.028,245.028,0,0,0,120.718,206l-4.883,175.778-4.68-9.359a7.986,7.986,0,0,0-6.363-4.366A5.142,5.142,0,0,0,104,368H40a8,8,0,0,0-7.155,4.422l-16,32c-.013.026-.017.05-.029.076A7.942,7.942,0,0,0,16,408v80a8,8,0,0,0,8,8H488a8,8,0,0,0,8-8V472A8,8,0,0,0,493.657,466.343ZM406.622,184.62a16,16,0,0,1,5.068-29.126,16.078,16.078,0,0,1,3.531-.393,16,16,0,1,1-8.6,29.519ZM429.655,352H403.438l.445-16H429.21ZM384,425.889l8-16,8,16V448H384Zm31.155-5.467-13.124-26.248a7.973,7.973,0,0,0,.288-1.887L402.994,368h27.1l2.222,80H416V424A7.994,7.994,0,0,0,415.155,420.422ZM428.766,320H404.328l2.942-105.9a244.8,244.8,0,0,0,19.483,33.457Zm-9.113-117.216c.846-.121,1.691-.263,2.534-.452a31.765,31.765,0,0,0,16.493-9.5A229.179,229.179,0,0,1,467.7,271.428,229.2,229.2,0,0,1,419.653,202.784ZM475.812,75.466a229.186,229.186,0,0,1-35.407,75.915,32.258,32.258,0,0,0-18.138-11.5A229.2,229.2,0,0,1,475.812,75.466ZM302.05,166.425a229.162,229.162,0,0,1,83.463-7.292,31.759,31.759,0,0,0-1.55,18.971c.189.842.418,1.667.669,2.483A229.22,229.22,0,0,1,302.05,166.425ZM332.944,400h46.112l-8,16H324.944ZM320,432h48v16H320Zm-60-48,12,16H228l-12-16Zm-44.234,26.355L217.6,412.8A8,8,0,0,0,224,416h35.056l-8,16H204.944ZM159.329,336H133.113l.444-16h25.327Zm-26.661,16h27.1L162,432H130.446Zm29.553-192a16,16,0,1,1-16-16A16.019,16.019,0,0,1,162.221,160Zm82.064,56.618a229.186,229.186,0,0,1-77.345-32.26,32,32,0,0,0,10.749-18.587A229.212,229.212,0,0,1,244.285,216.618ZM146.221,46.765a229.222,229.222,0,0,1,10.736,83.093,31.95,31.95,0,0,0-21.473,0A229.2,229.2,0,0,1,146.221,46.765ZM114.752,165.771A32,32,0,0,0,125.5,184.357a229.16,229.16,0,0,1-77.345,32.261A229.225,229.225,0,0,1,114.752,165.771ZM142.92,191.83a32.114,32.114,0,0,0,6.6,0q2.929,2.1,5.918,4.114l3,108.056H134l3-108.057Q139.991,193.932,142.92,191.83ZM112,409.889V432H96V409.889l8-16ZM32,432V416H80v16Zm12.944-48H91.056l-8,16H36.944ZM480,480H32V448H269.578l21.984,14.656A8.005,8.005,0,0,0,296,464H468.687L480,475.313Z"/><path d="M240.127,289.326A24,24,0,0,0,248,336h33.376A24.039,24.039,0,0,0,304,352h40a24,24,0,0,0,5.6-47.34,27.927,27.927,0,0,0-40.164-12.533,23.825,23.825,0,0,0-4.195-2.273,19.873,19.873,0,0,0-11.576-9.044,28,28,0,0,0-53.541,8.516Zm95.632,24.266A8,8,0,0,0,343.6,320h.4a8,8,0,0,1,0,16H304a8,8,0,0,1,0-16h.4a8,8,0,0,0,7.84-6.408,11.83,11.83,0,0,1,1.747-4.188,7.965,7.965,0,0,0,2.2-2.49,11.983,11.983,0,0,1,19.574,6.678Zm-56-23.988a8,8,0,0,0,8.077,6.412c.1,0,.2-.007.308-.014a3.99,3.99,0,0,1,3.668,2.79,8,8,0,0,0,5.914,5.4,7.837,7.837,0,0,1,.791.22c-.039.083-.083.162-.121.245A24.1,24.1,0,0,0,281.374,320H248a8,8,0,0,1,0-16h.4a8,8,0,0,0,7.84-9.593,12,12,0,1,1,23.519-4.8Z"/><path d="M40,312H80a24,24,0,0,0,5.6-47.34,28,28,0,0,0-51.206,0A24,24,0,0,0,40,312Zm0-32h.4a8,8,0,0,0,7.84-6.408,12,12,0,0,1,23.518,0A8,8,0,0,0,79.6,280H80a8,8,0,0,1,0,16H40a8,8,0,0,1,0-16Z"/></g></svg>
